<svg width="551" height="141" viewBox="0 0 551 141" fill="none" xmlns="http://www.w3.org/2000/svg">
<g clip-path="url(#clip0_683_24)">
<path d="M91.136 23.936H57.216V107.648H33.92V23.936H0V3.328H91.136V23.936ZM117.763 109.44C110.68 109.44 104.366 107.733 98.819 104.32C93.2723 100.992 88.963 96.3413 85.891 90.368C82.819 84.3947 81.283 77.6533 81.283 70.144C81.283 62.6347 82.819 55.8933 85.891 49.92C88.963 43.9467 93.2723 39.296 98.819 35.968C104.366 32.5547 110.68 30.848 117.763 30.848C127.406 30.848 134.574 34.0053 139.267 40.32V32.64H162.051V107.648H139.267V99.968C134.574 106.283 127.406 109.44 117.763 109.44ZM121.347 89.984C126.894 89.984 131.331 88.1493 134.659 84.48C137.987 80.7253 139.651 75.9467 139.651 70.144C139.651 64.3413 137.987 59.6053 134.659 55.936C131.331 52.1813 126.894 50.304 121.347 50.304C115.971 50.304 111.662 52.1813 108.419 55.936C105.176 59.6053 103.555 64.3413 103.555 70.144C103.555 75.9467 105.176 80.7253 108.419 84.48C111.662 88.15 115.971 89.9847 121.347 89.984ZM214.448 109.44C206.939 109.44 200.197 107.733 194.224 104.32C188.336 100.992 183.728 96.3413 180.4 90.368C177.072 84.3947 175.408 77.6533 175.408 70.144C175.408 62.6347 177.072 55.8933 180.4 49.92C183.728 43.9467 188.336 39.296 194.224 35.968C200.197 32.5547 206.939 30.848 214.448 30.848C221.957 30.848 228.656 32.5547 234.544 35.968C240.517 39.296 245.168 43.9467 248.496 49.92C251.824 55.8933 253.488 62.6347 253.488 70.144C253.488 72.6187 253.317 75.0507 252.976 77.44H198.064C198.917 81.792 200.795 85.1627 203.696 87.552C206.597 89.9413 210.181 91.136 214.448 91.136C217.691 91.136 220.549 90.624 223.024 89.6C225.584 88.49 227.333 87.0393 228.272 85.248H251.184C249.904 90.0267 247.515 94.208 244.016 97.792C240.517 101.461 236.208 104.32 231.088 106.368C225.968 108.416 220.421 109.44 214.448 109.44ZM231.216 62.72C230.277 58.1973 228.357 54.784 225.456 52.48C222.555 50.0907 218.885 48.896 214.448 48.896C210.011 48.896 206.384 50.0907 203.568 52.48C200.752 54.784 198.875 58.1973 197.936 62.72H231.216ZM266.873 32.64H289.657V40.32C294.35 34.0053 301.348 30.848 310.649 30.848C316.452 30.848 321.572 32.2133 326.009 34.944C330.446 37.5893 333.86 41.4293 336.249 46.464C338.724 51.4987 339.961 57.4293 339.961 64.256V107.648H317.177V68.096C317.177 62.3787 316.025 58.0267 313.721 55.04C311.502 51.968 308.26 50.432 303.993 50.432C299.556 50.432 296.057 52.096 293.497 55.424C290.937 58.752 289.657 63.3173 289.657 69.12V107.648H266.873V32.64ZM393.645 140.672C386.477 140.672 380.248 139.435 374.957 136.96C369.752 134.571 365.613 131.328 362.541 127.232C359.469 123.136 357.506 118.571 356.653 113.536H379.693C380.973 118.827 385.624 121.472 393.645 121.472C398.424 121.472 402.264 120.064 405.165 117.248C408.066 114.432 409.517 110.677 409.517 105.984V98.048C404.824 104.363 397.656 107.52 388.013 107.52C380.93 107.52 374.616 105.899 369.069 102.656C363.522 99.4133 359.213 94.8907 356.141 89.088C353.069 83.2853 351.533 76.7573 351.533 69.504C351.533 62.08 353.069 55.4667 356.141 49.664C359.213 43.776 363.522 39.168 369.069 35.84C374.616 32.512 380.93 30.848 388.013 30.848C397.656 30.848 404.824 34.0053 409.517 40.32V32.64H432.301V106.24C432.301 112.896 430.637 118.827 427.309 124.032C423.981 129.323 419.373 133.419 413.485 136.32C407.682 139.221 401.069 140.672 393.645 140.672ZM391.597 88.704C397.144 88.704 401.581 86.912 404.909 83.328C408.237 79.744 409.901 75.136 409.901 69.504C409.901 63.872 408.237 59.264 404.909 55.68C401.581 52.096 397.144 50.304 391.597 50.304C386.221 50.304 381.912 52.096 378.669 55.68C375.426 59.264 373.805 63.872 373.805 69.504C373.805 75.136 375.426 79.744 378.669 83.328C381.912 86.912 386.221 88.704 391.597 88.704ZM468.314 16.512C468.314 23.5093 466.394 29.3547 462.554 34.048C458.714 38.6553 453.381 41.258 446.554 41.856V31.744C449.882 31.4027 452.485 30.1653 454.362 28.032C456.325 25.8987 457.306 23.168 457.306 19.84H448.09V0H468.314V16.512ZM515.108 30.848C521.337 30.848 527.012 31.872 532.132 33.92C537.252 35.8827 541.348 38.6987 544.42 42.368C547.492 46.0373 549.156 50.304 549.412 55.168H527.396C527.055 52.864 525.689 51.072 523.3 49.792C520.996 48.4267 518.137 47.744 514.724 47.744C511.311 47.744 508.452 48.2987 506.148 49.408C503.929 50.4327 502.82 51.798 502.82 53.504C502.82 55.296 504.143 56.7467 506.788 57.856C509.433 58.9653 514.041 60.032 520.612 61.056C531.449 62.6773 539.172 65.3653 543.78 69.12C548.388 72.8747 550.692 78.0373 550.692 84.608C550.692 89.5573 549.113 93.9093 545.956 97.664C542.799 101.419 538.532 104.32 533.156 106.368C527.78 108.416 521.892 109.44 515.492 109.44C509.007 109.44 503.119 108.373 497.828 106.24C492.623 104.192 488.441 101.248 485.284 97.408C482.212 93.568 480.548 89.088 480.292 83.968H502.308C502.649 86.358 504.1 88.3207 506.66 89.856C509.22 91.306 512.292 92.0313 515.876 92.032C519.545 92.032 522.575 91.4347 524.964 90.24C527.353 89.0453 528.548 87.5947 528.548 85.888C528.548 84.096 527.14 82.6027 524.324 81.408C521.508 80.128 516.9 79.0187 510.5 78.08C500.687 76.63 493.263 74.1553 488.228 70.656C483.279 67.1573 480.804 61.824 480.804 54.656C480.804 49.8773 482.297 45.696 485.284 42.112C488.356 38.528 492.495 35.7547 497.7 33.792C502.905 31.8293 508.708 30.848 515.108 30.848Z" fill="#C2B6AD"/>
</g>
<defs>
<clipPath id="clip0_683_24">
<rect width="551" height="141" fill="white"/>
</clipPath>
</defs>
</svg>
