<svg xmlns="http://www.w3.org/2000/svg" width="551" height="141" fill="none"><path fill="#fff" d="M91.136 23.936h-33.92v83.712H33.92V23.936H0V3.328h91.136zm26.627 85.504q-10.624 0-18.944-5.12-8.32-4.992-12.928-13.952t-4.608-20.224 4.608-20.224 12.928-13.952q8.32-5.12 18.944-5.12 14.465 0 21.504 9.472v-7.68h22.784v75.008h-22.784v-7.68q-7.04 9.472-21.504 9.472m3.584-19.456q8.32 0 13.312-5.504 4.992-5.632 4.992-14.336t-4.992-14.208q-4.992-5.632-13.312-5.632-8.064 0-12.928 5.632-4.864 5.504-4.864 14.208t4.864 14.336q4.864 5.505 12.928 5.504m93.101 19.456q-11.264 0-20.224-5.12-8.832-4.992-13.824-13.952t-4.992-20.224T180.4 49.92t13.824-13.952q8.96-5.12 20.224-5.12t20.096 5.12q8.96 4.992 13.952 13.952t4.992 20.224q0 3.712-.512 7.296h-54.912q1.28 6.528 5.632 10.112t10.752 3.584q4.864 0 8.576-1.536 3.84-1.665 5.248-4.352h22.912q-1.92 7.168-7.168 12.544-5.248 5.504-12.928 8.576t-16.64 3.072m16.768-46.72q-1.409-6.784-5.76-10.24-4.352-3.584-11.008-3.584t-10.88 3.584q-4.224 3.456-5.632 10.24zm35.657-30.08h22.784v7.68q7.04-9.472 20.992-9.472 8.704 0 15.36 4.096 6.656 3.968 10.24 11.52 3.712 7.552 3.712 17.792v43.392h-22.784V68.096q0-8.576-3.456-13.056-3.328-4.608-9.728-4.608-6.656 0-10.496 4.992t-3.84 13.696v38.528h-22.784zm126.772 108.032q-10.752 0-18.688-3.712-7.808-3.584-12.416-9.728t-5.888-13.696h23.04q1.92 7.936 13.952 7.936 7.168 0 11.52-4.224t4.352-11.264v-7.936q-7.04 9.472-21.504 9.472-10.624 0-18.944-4.864t-12.928-13.568-4.608-19.584q0-11.136 4.608-19.84 4.608-8.832 12.928-13.824t18.944-4.992q14.464 0 21.504 9.472v-7.68h22.784v73.6q0 9.984-4.992 17.792-4.992 7.937-13.824 12.288-8.704 4.352-19.84 4.352m-2.048-51.968q8.32 0 13.312-5.376t4.992-13.824-4.992-13.824-13.312-5.376q-8.064 0-12.928 5.376t-4.864 13.824 4.864 13.824 12.928 5.376m76.717-72.192q0 10.496-5.76 17.536-5.76 6.911-16 7.808V31.744q4.992-.512 7.808-3.712 2.944-3.2 2.944-8.192h-9.216V0h20.224zm46.794 14.336q9.344 0 17.024 3.072 7.68 2.944 12.288 8.448t4.992 12.8h-22.016q-.512-3.456-4.096-5.376-3.456-2.048-8.576-2.048t-8.576 1.664q-3.328 1.537-3.328 4.096 0 2.688 3.968 4.352t13.824 3.2q16.256 2.432 23.168 8.064t6.912 15.488q0 7.424-4.736 13.056t-12.8 8.704-17.664 3.072q-9.728 0-17.664-3.2-7.808-3.072-12.544-8.832-4.608-5.76-4.992-13.44h22.016q.512 3.585 4.352 5.888 3.84 2.175 9.216 2.176 5.504 0 9.088-1.792t3.584-4.352q0-2.688-4.224-4.48-4.224-1.92-13.824-3.328-14.72-2.175-22.272-7.424-7.424-5.248-7.424-16 0-7.168 4.48-12.544 4.608-5.376 12.416-8.32t17.408-2.944"/></svg>